<svg width="50" height="50" viewBox="0 0 50 50" fill="none" xmlns="http://www.w3.org/2000/svg">
<path d="M33.9844 23.4375H26.5625V16.0156C26.5625 15.8008 26.3867 15.625 26.1719 15.625H23.8281C23.6133 15.625 23.4375 15.8008 23.4375 16.0156V23.4375H16.0156C15.8008 23.4375 15.625 23.6133 15.625 23.8281V26.1719C15.625 26.3867 15.8008 26.5625 16.0156 26.5625H23.4375V33.9844C23.4375 34.1992 23.6133 34.375 23.8281 34.375H26.1719C26.3867 34.375 26.5625 34.1992 26.5625 33.9844V26.5625H33.9844C34.1992 26.5625 34.375 26.3867 34.375 26.1719V23.8281C34.375 23.6133 34.1992 23.4375 33.9844 23.4375Z" fill="#F4F4F4"/>
<path d="M25 3.125C12.9199 3.125 3.125 12.9199 3.125 25C3.125 37.0801 12.9199 46.875 25 46.875C37.0801 46.875 46.875 37.0801 46.875 25C46.875 12.9199 37.0801 3.125 25 3.125ZM25 43.1641C14.9707 43.1641 6.83594 35.0293 6.83594 25C6.83594 14.9707 14.9707 6.83594 25 6.83594C35.0293 6.83594 43.1641 14.9707 43.1641 25C43.1641 35.0293 35.0293 43.1641 25 43.1641Z" fill="#F4F4F4"/>
</svg>
