<svg width="48" height="48" viewBox="0 0 48 48" fill="none" xmlns="http://www.w3.org/2000/svg">
<path d="M34.035 29.2151L34.4441 28.5437C36.1156 25.8001 36.9973 22.6483 36.992 19.4356V19.434C36.992 9.73546 28.557 1.30298 18.858 1.30298H18.8579C16.5521 1.30261 14.2687 1.7565 12.1384 2.63873C10.008 3.52096 8.07226 4.81425 6.44179 6.44472C4.81132 8.07519 3.51803 10.0109 2.6358 12.1413C1.75357 14.2717 1.29968 16.555 1.30005 18.8608V18.861C1.30005 28.5567 9.73533 36.992 19.431 36.992H19.4319C22.5388 36.9948 25.59 36.168 28.2704 34.5972L28.9371 34.2065L29.4833 34.7531L40.8792 46.155L34.035 29.2151ZM34.035 29.2151L34.5909 29.7711M34.035 29.2151L34.5909 29.7711M34.5909 29.7711L45.9279 41.1081C46.3919 41.5721 46.6278 42.0206 46.685 42.3762C46.7338 42.6799 46.6694 42.9904 46.3329 43.3269L43.5049 46.155M34.5909 29.7711L43.5049 46.155M18.858 0.302979C29.109 0.302979 37.992 9.18298 37.992 19.434C37.9977 22.8308 37.0654 26.1632 35.298 29.064L46.635 40.401C47.748 41.514 48.153 42.921 47.04 44.034L18.858 0.302979ZM18.858 0.302979C16.4209 0.302585 14.0075 0.782333 11.7557 1.71482M18.858 0.302979L11.7557 1.71482M43.5049 46.155L43.5039 46.1559C43.1555 46.5029 42.6838 46.6977 42.192 46.6977C41.7004 46.6977 41.2287 46.503 40.8803 46.1561L43.5049 46.155ZM33.28 19.434V19.4342C33.2792 23.1069 31.8199 26.6289 29.2229 29.2258C26.6259 31.8228 23.1039 33.2821 19.4313 33.283H19.4306C11.7807 33.2797 5.01219 26.5083 5.01205 18.8612L33.28 19.434ZM33.28 19.434C33.28 11.7805 26.5082 5.01198 18.858 5.01198C17.0395 5.01198 15.2388 5.37022 13.5587 6.06625C11.8786 6.76228 10.3521 7.78246 9.06631 9.06852C7.78054 10.3546 6.76072 11.8813 6.06508 13.5616C5.36948 15.2418 5.01166 17.0425 5.01205 18.861L33.28 19.434ZM11.7557 1.71482C9.504 2.64731 7.45803 4.01426 5.73468 5.73761M11.7557 1.71482L5.73468 5.73761M5.73468 5.73761C4.01133 7.46096 2.64438 9.50693 1.71189 11.7587M5.73468 5.73761L1.71189 11.7587M1.71189 11.7587C0.779403 14.0104 0.299655 16.4238 0.300049 18.861L1.71189 11.7587Z" fill="white" stroke="#4C0070" stroke-width="2"/>
</svg>
