<svg width="34" height="42" viewBox="0 0 34 42" fill="none" xmlns="http://www.w3.org/2000/svg">
<path d="M31.5833 37.6667H2.41667C1.86414 37.6667 1.33424 37.8861 0.943536 38.2768C0.552835 38.6675 0.333341 39.1975 0.333341 39.75C0.333341 40.3025 0.552835 40.8324 0.943536 41.2231C1.33424 41.6138 1.86414 41.8333 2.41667 41.8333H31.5833C32.1359 41.8333 32.6658 41.6138 33.0565 41.2231C33.4472 40.8324 33.6667 40.3025 33.6667 39.75C33.6667 39.1975 33.4472 38.6675 33.0565 38.2768C32.6658 37.8861 32.1359 37.6667 31.5833 37.6667ZM2.41667 33.5H2.60417L11.2917 32.7083C12.2433 32.6135 13.1334 32.1942 13.8125 31.5208L32.5625 12.7708C33.2902 12.002 33.6835 10.976 33.6562 9.91777C33.6289 8.8595 33.1831 7.85521 32.4167 7.12499L26.7083 1.41666C25.9633 0.716855 24.9871 0.31532 23.9653 0.288431C22.9435 0.261541 21.9475 0.611175 21.1667 1.27082L2.41667 20.0208C1.74327 20.6999 1.32398 21.59 1.22917 22.5417L0.333341 31.2292C0.305276 31.5343 0.344871 31.8419 0.449302 32.13C0.553733 32.418 0.720429 32.6795 0.937508 32.8958C1.13217 33.0889 1.36304 33.2417 1.61687 33.3453C1.8707 33.449 2.14249 33.5016 2.41667 33.5ZM23.8125 4.33332L29.5 10.0208L25.3333 14.0833L19.75 8.49999L23.8125 4.33332Z" fill="#F8F8F8"/>
</svg>
