<svg width="401" height="74" viewBox="0 0 401 74" fill="none" xmlns="http://www.w3.org/2000/svg">
<path d="M172.16 24.248C172.16 25.688 171.648 26.76 170.624 27.464C169.6 28.136 168.368 28.472 166.928 28.472C165.488 28.472 164.224 28.136 163.136 27.464C163.264 26.824 163.328 26.104 163.328 25.304C163.328 24.472 163.104 23.704 162.656 23C161.952 21.944 160.816 21.416 159.248 21.416C156.944 21.416 154.976 22.616 153.344 25.016C151.712 27.384 150.896 30.696 150.896 34.952C150.896 39.176 151.776 42.2 153.536 44.024C155.328 45.848 157.792 46.76 160.928 46.76C162.848 46.76 164.672 46.312 166.4 45.416C168.16 44.488 169.552 43.4 170.576 42.152C171.696 42.632 172.256 43.624 172.256 45.128C172.256 47.08 170.944 48.968 168.32 50.792C165.696 52.616 162.576 53.528 158.96 53.528C153.904 53.528 149.968 51.976 147.152 48.872C144.368 45.736 142.976 41.352 142.976 35.72C142.976 30.088 144.496 25.592 147.536 22.232C150.576 18.872 154.704 17.192 159.92 17.192C163.28 17.192 166.16 17.88 168.56 19.256C170.96 20.6 172.16 22.264 172.16 24.248ZM188.302 22.856V48.056C188.302 49.784 188.814 50.92 189.838 51.464C188.622 52.84 187.182 53.528 185.518 53.528C183.854 53.528 182.638 53.064 181.87 52.136C181.102 51.208 180.718 49.768 180.718 47.816V22.568C180.718 20.904 180.19 19.8 179.134 19.256C180.286 17.88 181.742 17.192 183.502 17.192C186.702 17.192 188.302 19.08 188.302 22.856ZM198.811 47.816V22.568C198.811 20.904 198.283 19.8 197.227 19.256C198.379 17.88 200.107 17.192 202.411 17.192C205.227 17.192 207.483 18.6 209.179 21.416L222.427 43.4V22.568C222.427 20.904 221.899 19.8 220.843 19.256C221.995 17.88 223.451 17.192 225.211 17.192C228.411 17.192 230.011 19.08 230.011 22.856V48.056C230.011 49.88 230.315 51.24 230.923 52.136C229.931 53.064 228.491 53.528 226.603 53.528C224.715 53.528 223.051 52.968 221.611 51.848C220.171 50.696 218.619 48.76 216.955 46.04L206.395 28.328V48.056C206.395 49.784 206.907 50.92 207.931 51.464C206.715 52.84 205.275 53.528 203.611 53.528C201.947 53.528 200.731 53.064 199.963 52.136C199.195 51.208 198.811 49.768 198.811 47.816ZM250.817 46.856H258.545C260.817 46.856 262.833 46.216 264.593 44.936C265.617 45.8 266.129 46.936 266.129 48.344C266.129 49.752 265.617 50.888 264.593 51.752C263.569 52.584 262.033 53 259.985 53H249.569C246.369 53 244.017 52.312 242.513 50.936C241.041 49.56 240.305 47.384 240.305 44.408V23.096C240.305 21.464 239.761 20.36 238.673 19.784C239.857 18.376 241.313 17.672 243.041 17.672H259.073C261.601 17.672 263.409 18.008 264.497 18.68C265.585 19.32 266.129 20.28 266.129 21.56C266.129 22.84 265.617 23.912 264.593 24.776C263.057 24.168 261.041 23.864 258.545 23.864H247.841V31.064H254.465C257.025 31.064 258.833 31.336 259.889 31.88C260.977 32.424 261.521 33.352 261.521 34.664C261.521 35.944 261.009 36.984 259.985 37.784C258.833 37.4 256.817 37.208 253.937 37.208H247.841V43.448C247.841 45.72 248.833 46.856 250.817 46.856ZM280.328 23.048V34.328H283.064C285.304 34.328 287.016 33.848 288.2 32.888C289.384 31.896 289.976 30.504 289.976 28.712C289.976 26.888 289.384 25.496 288.2 24.536C287.016 23.544 285.304 23.048 283.064 23.048H280.328ZM300.584 50.312C299.496 52.456 297.768 53.528 295.4 53.528C294.152 53.528 293.016 53.208 291.992 52.568C290.968 51.928 289.864 50.664 288.68 48.776L283.112 39.704H280.28V48.056C280.28 49.784 280.808 50.92 281.864 51.464C280.648 52.84 279.176 53.528 277.448 53.528C274.312 53.528 272.744 51.624 272.744 47.816V23.096C272.744 21.464 272.2 20.36 271.112 19.784C272.296 18.376 273.768 17.672 275.528 17.672H283.496C287.368 17.672 290.696 18.648 293.48 20.6C296.296 22.52 297.704 25.224 297.704 28.712C297.704 30.984 297.08 32.936 295.832 34.568C294.584 36.168 292.904 37.416 290.792 38.312L296.456 46.712C297.608 48.28 298.984 49.48 300.584 50.312ZM317.614 46.856H325.342C327.614 46.856 329.63 46.216 331.39 44.936C332.414 45.8 332.926 46.936 332.926 48.344C332.926 49.752 332.414 50.888 331.39 51.752C330.366 52.584 328.83 53 326.781 53H316.366C313.166 53 310.814 52.312 309.31 50.936C307.838 49.56 307.102 47.384 307.102 44.408V23.096C307.102 21.464 306.558 20.36 305.47 19.784C306.654 18.376 308.11 17.672 309.838 17.672H325.87C328.398 17.672 330.206 18.008 331.294 18.68C332.382 19.32 332.926 20.28 332.926 21.56C332.926 22.84 332.414 23.912 331.39 24.776C329.854 24.168 327.838 23.864 325.342 23.864H314.638V31.064H321.262C323.822 31.064 325.63 31.336 326.686 31.88C327.774 32.424 328.318 33.352 328.318 34.664C328.318 35.944 327.806 36.984 326.781 37.784C325.63 37.4 323.614 37.208 320.734 37.208H314.638V43.448C314.638 45.72 315.63 46.856 317.614 46.856ZM366.661 24.296C366.661 25.48 366.277 26.44 365.509 27.176C364.773 27.88 363.749 28.232 362.437 28.232C361.125 28.232 359.893 27.816 358.741 26.984C358.997 26.472 359.125 25.816 359.125 25.016C359.125 24.184 358.645 23.448 357.685 22.808C356.757 22.168 355.413 21.848 353.653 21.848C351.925 21.848 350.501 22.168 349.381 22.808C348.261 23.448 347.701 24.312 347.701 25.4C347.701 26.456 348.373 27.448 349.717 28.376C351.093 29.272 352.741 30.152 354.661 31.016C356.613 31.848 358.549 32.76 360.469 33.752C362.421 34.744 364.069 36.04 365.413 37.64C366.789 39.24 367.477 41.032 367.477 43.016C367.477 46.088 366.101 48.616 363.349 50.6C360.629 52.552 357.317 53.528 353.413 53.528C349.541 53.528 346.261 52.808 343.573 51.368C340.885 49.896 339.541 48.008 339.541 45.704C339.541 44.36 340.005 43.288 340.933 42.488C341.893 41.688 343.029 41.288 344.341 41.288C345.685 41.288 346.997 41.8 348.277 42.824C347.509 43.528 347.125 44.376 347.125 45.368C347.125 46.36 347.701 47.192 348.853 47.864C350.037 48.536 351.605 48.872 353.557 48.872C355.541 48.872 357.093 48.472 358.213 47.672C359.365 46.872 359.941 45.816 359.941 44.504C359.941 43.16 359.253 41.976 357.877 40.952C356.533 39.896 354.885 38.952 352.933 38.12C351.013 37.288 349.077 36.408 347.125 35.48C345.205 34.552 343.557 33.384 342.181 31.976C340.837 30.536 340.165 28.904 340.165 27.08C340.165 24.072 341.477 21.672 344.101 19.88C346.725 18.088 349.941 17.192 353.749 17.192C357.557 17.192 360.661 17.864 363.061 19.208C365.461 20.552 366.661 22.248 366.661 24.296ZM377.516 17.672H394.892C397.964 17.672 399.5 18.904 399.5 21.368C399.5 22.232 399.1 23.16 398.3 24.152C396.988 23.576 395.1 23.288 392.636 23.288H388.844V48.056C388.844 49.784 389.372 50.92 390.428 51.464C389.212 52.84 387.74 53.528 386.012 53.528C382.876 53.528 381.308 51.624 381.308 47.816V23.288H375.26C372.188 23.288 370.652 22.056 370.652 19.592C370.652 18.728 371.052 17.8 371.852 16.808C373.164 17.384 375.052 17.672 377.516 17.672Z" fill="#F4F4F4"/>
<circle cx="16" cy="37" r="16" fill="#A63EC5"/>
<circle cx="59" cy="37" r="16" fill="#79018C"/>
<circle cx="102" cy="37" r="16" fill="#4C0070"/>
</svg>
